<svg xmlns="http://www.w3.org/2000/svg" xmlns:xlink="http://www.w3.org/1999/xlink" viewBox="0 0 1921.36 1081.01"><defs><style>.cls-1{fill:url(#未命名的渐变_104);}.cls-2{opacity:0.05;}.cls-3{fill:none;stroke:#fff;stroke-miterlimit:10;stroke-width:0.51px;}</style><radialGradient id="未命名的渐变_104" cx="961.36" cy="540" r="1291.42" gradientTransform="translate(0 382.54) scale(1 0.29)" gradientUnits="userSpaceOnUse"><stop offset="0" stop-color="#2343b5"/><stop offset="1" stop-color="#0f1432"/></radialGradient></defs><title>资源 1</title><g id="图层_2" data-name="图层 2"><g id="图层_1-2" data-name="图层 1"><rect class="cls-1" x="1.36" width="1920" height="1080"/><g class="cls-2"><line class="cls-3" x1="0.26" y1="0.75" x2="1920.26" y2="0.75"/><line class="cls-3" x1="0.26" y1="20.75" x2="1920.26" y2="20.75"/><line class="cls-3" x1="0.26" y1="40.75" x2="1920.26" y2="40.75"/><line class="cls-3" x1="0.26" y1="60.75" x2="1920.26" y2="60.75"/><line class="cls-3" x1="0.26" y1="80.75" x2="1920.26" y2="80.75"/><line class="cls-3" x1="0.26" y1="100.75" x2="1920.26" y2="100.75"/><line class="cls-3" x1="0.26" y1="120.75" x2="1920.26" y2="120.75"/><line class="cls-3" x1="0.26" y1="140.75" x2="1920.26" y2="140.75"/><line class="cls-3" x1="0.26" y1="160.75" x2="1920.26" y2="160.75"/><line class="cls-3" x1="0.26" y1="180.75" x2="1920.26" y2="180.75"/><line class="cls-3" x1="0.26" y1="200.75" x2="1920.26" y2="200.75"/><line class="cls-3" x1="0.26" y1="220.75" x2="1920.26" y2="220.75"/><line class="cls-3" x1="0.26" y1="240.75" x2="1920.26" y2="240.75"/><line class="cls-3" x1="0.26" y1="260.75" x2="1920.26" y2="260.75"/><line class="cls-3" x1="0.26" y1="280.75" x2="1920.26" y2="280.75"/><line class="cls-3" x1="0.26" y1="300.75" x2="1920.26" y2="300.75"/><line class="cls-3" x1="0.26" y1="320.75" x2="1920.26" y2="320.75"/><line class="cls-3" x1="0.26" y1="340.75" x2="1920.26" y2="340.75"/><line class="cls-3" x1="0.26" y1="360.75" x2="1920.26" y2="360.75"/><line class="cls-3" x1="0.26" y1="380.75" x2="1920.26" y2="380.75"/><line class="cls-3" x1="0.26" y1="400.75" x2="1920.26" y2="400.75"/><line class="cls-3" x1="0.26" y1="420.75" x2="1920.26" y2="420.75"/><line class="cls-3" x1="0.26" y1="440.75" x2="1920.26" y2="440.75"/><line class="cls-3" x1="0.26" y1="460.75" x2="1920.26" y2="460.75"/><line class="cls-3" x1="0.26" y1="480.75" x2="1920.26" y2="480.75"/><line class="cls-3" x1="0.26" y1="500.75" x2="1920.26" y2="500.75"/><line class="cls-3" x1="0.26" y1="520.75" x2="1920.26" y2="520.75"/><line class="cls-3" x1="0.26" y1="540.75" x2="1920.26" y2="540.75"/><line class="cls-3" x1="0.26" y1="560.75" x2="1920.26" y2="560.75"/><line class="cls-3" x1="0.26" y1="580.75" x2="1920.26" y2="580.75"/><line class="cls-3" x1="0.26" y1="600.75" x2="1920.26" y2="600.75"/><line class="cls-3" x1="0.26" y1="620.75" x2="1920.26" y2="620.75"/><line class="cls-3" x1="0.26" y1="640.75" x2="1920.26" y2="640.75"/><line class="cls-3" x1="0.26" y1="660.75" x2="1920.26" y2="660.75"/><line class="cls-3" x1="0.26" y1="680.75" x2="1920.26" y2="680.75"/><line class="cls-3" x1="0.26" y1="700.75" x2="1920.26" y2="700.75"/><line class="cls-3" x1="0.26" y1="720.75" x2="1920.26" y2="720.75"/><line class="cls-3" x1="0.26" y1="740.75" x2="1920.26" y2="740.75"/><line class="cls-3" x1="0.26" y1="760.75" x2="1920.26" y2="760.75"/><line class="cls-3" x1="0.26" y1="780.75" x2="1920.26" y2="780.75"/><line class="cls-3" x1="0.26" y1="800.75" x2="1920.26" y2="800.75"/><line class="cls-3" x1="0.26" y1="820.75" x2="1920.26" y2="820.75"/><line class="cls-3" x1="0.26" y1="840.75" x2="1920.26" y2="840.75"/><line class="cls-3" x1="0.26" y1="860.75" x2="1920.26" y2="860.75"/><line class="cls-3" x1="0.26" y1="880.75" x2="1920.26" y2="880.75"/><line class="cls-3" x1="0.26" y1="900.75" x2="1920.26" y2="900.75"/><line class="cls-3" x1="0.26" y1="920.75" x2="1920.26" y2="920.75"/><line class="cls-3" x1="0.26" y1="940.75" x2="1920.26" y2="940.75"/><line class="cls-3" x1="0.26" y1="960.75" x2="1920.26" y2="960.75"/><line class="cls-3" x1="0.26" y1="980.75" x2="1920.26" y2="980.75"/><line class="cls-3" x1="0.26" y1="1000.75" x2="1920.26" y2="1000.75"/><line class="cls-3" x1="0.26" y1="1020.75" x2="1920.26" y2="1020.75"/><line class="cls-3" x1="0.26" y1="1040.75" x2="1920.26" y2="1040.75"/><line class="cls-3" x1="0.26" y1="1060.75" x2="1920.26" y2="1060.75"/><line class="cls-3" x1="0.26" y1="1080.75" x2="1920.26" y2="1080.75"/><line class="cls-3" x1="0.26" y1="1080.75" x2="0.26" y2="0.75"/><line class="cls-3" x1="20.26" y1="1080.75" x2="20.26" y2="0.75"/><line class="cls-3" x1="40.26" y1="1080.75" x2="40.26" y2="0.75"/><line class="cls-3" x1="60.26" y1="1080.75" x2="60.26" y2="0.75"/><line class="cls-3" x1="80.26" y1="1080.75" x2="80.26" y2="0.75"/><line class="cls-3" x1="100.26" y1="1080.75" x2="100.26" y2="0.75"/><line class="cls-3" x1="120.26" y1="1080.75" x2="120.26" y2="0.75"/><line class="cls-3" x1="140.26" y1="1080.75" x2="140.26" y2="0.75"/><line class="cls-3" x1="160.26" y1="1080.75" x2="160.26" y2="0.75"/><line class="cls-3" x1="180.26" y1="1080.75" x2="180.26" y2="0.75"/><line class="cls-3" x1="200.26" y1="1080.75" x2="200.26" y2="0.75"/><line class="cls-3" x1="220.26" y1="1080.75" x2="220.26" y2="0.75"/><line class="cls-3" x1="240.26" y1="1080.75" x2="240.26" y2="0.75"/><line class="cls-3" x1="260.26" y1="1080.75" x2="260.26" y2="0.75"/><line class="cls-3" x1="280.26" y1="1080.75" x2="280.26" y2="0.75"/><line class="cls-3" x1="300.26" y1="1080.75" x2="300.26" y2="0.75"/><line class="cls-3" x1="320.26" y1="1080.75" x2="320.26" y2="0.75"/><line class="cls-3" x1="340.26" y1="1080.75" x2="340.26" y2="0.75"/><line class="cls-3" x1="360.26" y1="1080.75" x2="360.26" y2="0.75"/><line class="cls-3" x1="380.26" y1="1080.75" x2="380.26" y2="0.75"/><line class="cls-3" x1="400.26" y1="1080.75" x2="400.26" y2="0.75"/><line class="cls-3" x1="420.26" y1="1080.75" x2="420.26" y2="0.75"/><line class="cls-3" x1="440.26" y1="1080.75" x2="440.26" y2="0.75"/><line class="cls-3" x1="460.26" y1="1080.75" x2="460.26" y2="0.75"/><line class="cls-3" x1="480.26" y1="1080.75" x2="480.26" y2="0.75"/><line class="cls-3" x1="500.26" y1="1080.75" x2="500.26" y2="0.75"/><line class="cls-3" x1="520.26" y1="1080.75" x2="520.26" y2="0.75"/><line class="cls-3" x1="540.26" y1="1080.75" x2="540.26" y2="0.75"/><line class="cls-3" x1="560.26" y1="1080.75" x2="560.26" y2="0.75"/><line class="cls-3" x1="580.26" y1="1080.75" x2="580.26" y2="0.75"/><line class="cls-3" x1="600.26" y1="1080.75" x2="600.26" y2="0.75"/><line class="cls-3" x1="620.26" y1="1080.75" x2="620.26" y2="0.75"/><line class="cls-3" x1="640.26" y1="1080.75" x2="640.26" y2="0.75"/><line class="cls-3" x1="660.26" y1="1080.75" x2="660.26" y2="0.75"/><line class="cls-3" x1="680.26" y1="1080.75" x2="680.26" y2="0.75"/><line class="cls-3" x1="700.26" y1="1080.75" x2="700.26" y2="0.75"/><line class="cls-3" x1="720.26" y1="1080.75" x2="720.26" y2="0.75"/><line class="cls-3" x1="740.26" y1="1080.75" x2="740.26" y2="0.75"/><line class="cls-3" x1="760.26" y1="1080.75" x2="760.26" y2="0.75"/><line class="cls-3" x1="780.26" y1="1080.75" x2="780.26" y2="0.75"/><line class="cls-3" x1="800.26" y1="1080.75" x2="800.26" y2="0.75"/><line class="cls-3" x1="820.26" y1="1080.75" x2="820.26" y2="0.75"/><line class="cls-3" x1="840.26" y1="1080.75" x2="840.26" y2="0.75"/><line class="cls-3" x1="860.26" y1="1080.75" x2="860.26" y2="0.75"/><line class="cls-3" x1="880.26" y1="1080.75" x2="880.26" y2="0.75"/><line class="cls-3" x1="900.26" y1="1080.75" x2="900.26" y2="0.75"/><line class="cls-3" x1="920.26" y1="1080.75" x2="920.26" y2="0.75"/><line class="cls-3" x1="940.26" y1="1080.75" x2="940.26" y2="0.75"/><line class="cls-3" x1="960.26" y1="1080.75" x2="960.26" y2="0.75"/><line class="cls-3" x1="980.26" y1="1080.75" x2="980.26" y2="0.75"/><line class="cls-3" x1="1000.26" y1="1080.75" x2="1000.26" y2="0.75"/><line class="cls-3" x1="1020.26" y1="1080.75" x2="1020.26" y2="0.75"/><line class="cls-3" x1="1040.26" y1="1080.75" x2="1040.26" y2="0.75"/><line class="cls-3" x1="1060.26" y1="1080.75" x2="1060.26" y2="0.75"/><line class="cls-3" x1="1080.26" y1="1080.75" x2="1080.26" y2="0.75"/><line class="cls-3" x1="1100.26" y1="1080.75" x2="1100.26" y2="0.75"/><line class="cls-3" x1="1120.26" y1="1080.75" x2="1120.26" y2="0.75"/><line class="cls-3" x1="1140.26" y1="1080.75" x2="1140.26" y2="0.75"/><line class="cls-3" x1="1160.26" y1="1080.75" x2="1160.26" y2="0.75"/><line class="cls-3" x1="1180.26" y1="1080.75" x2="1180.26" y2="0.75"/><line class="cls-3" x1="1200.26" y1="1080.75" x2="1200.26" y2="0.75"/><line class="cls-3" x1="1220.26" y1="1080.75" x2="1220.26" y2="0.75"/><line class="cls-3" x1="1240.26" y1="1080.75" x2="1240.26" y2="0.75"/><line class="cls-3" x1="1260.26" y1="1080.75" x2="1260.26" y2="0.75"/><line class="cls-3" x1="1280.26" y1="1080.75" x2="1280.26" y2="0.75"/><line class="cls-3" x1="1300.26" y1="1080.75" x2="1300.26" y2="0.75"/><line class="cls-3" x1="1320.26" y1="1080.75" x2="1320.26" y2="0.75"/><line class="cls-3" x1="1340.26" y1="1080.75" x2="1340.26" y2="0.75"/><line class="cls-3" x1="1360.26" y1="1080.75" x2="1360.26" y2="0.75"/><line class="cls-3" x1="1380.26" y1="1080.75" x2="1380.26" y2="0.75"/><line class="cls-3" x1="1400.26" y1="1080.75" x2="1400.26" y2="0.75"/><line class="cls-3" x1="1420.26" y1="1080.75" x2="1420.26" y2="0.75"/><line class="cls-3" x1="1440.26" y1="1080.75" x2="1440.26" y2="0.75"/><line class="cls-3" x1="1460.26" y1="1080.75" x2="1460.26" y2="0.75"/><line class="cls-3" x1="1480.26" y1="1080.75" x2="1480.26" y2="0.75"/><line class="cls-3" x1="1500.26" y1="1080.75" x2="1500.26" y2="0.75"/><line class="cls-3" x1="1520.26" y1="1080.75" x2="1520.26" y2="0.75"/><line class="cls-3" x1="1540.26" y1="1080.75" x2="1540.26" y2="0.75"/><line class="cls-3" x1="1560.26" y1="1080.75" x2="1560.26" y2="0.75"/><line class="cls-3" x1="1580.26" y1="1080.75" x2="1580.26" y2="0.75"/><line class="cls-3" x1="1600.26" y1="1080.75" x2="1600.26" y2="0.75"/><line class="cls-3" x1="1620.26" y1="1080.75" x2="1620.26" y2="0.75"/><line class="cls-3" x1="1640.26" y1="1080.75" x2="1640.26" y2="0.75"/><line class="cls-3" x1="1660.26" y1="1080.75" x2="1660.26" y2="0.75"/><line class="cls-3" x1="1680.26" y1="1080.75" x2="1680.26" y2="0.75"/><line class="cls-3" x1="1700.26" y1="1080.75" x2="1700.26" y2="0.75"/><line class="cls-3" x1="1720.26" y1="1080.75" x2="1720.26" y2="0.75"/><line class="cls-3" x1="1740.26" y1="1080.75" x2="1740.26" y2="0.75"/><line class="cls-3" x1="1760.26" y1="1080.75" x2="1760.26" y2="0.75"/><line class="cls-3" x1="1780.26" y1="1080.75" x2="1780.26" y2="0.75"/><line class="cls-3" x1="1800.26" y1="1080.75" x2="1800.26" y2="0.75"/><line class="cls-3" x1="1820.26" y1="1080.75" x2="1820.26" y2="0.75"/><line class="cls-3" x1="1840.26" y1="1080.75" x2="1840.26" y2="0.75"/><line class="cls-3" x1="1860.26" y1="1080.75" x2="1860.26" y2="0.75"/><line class="cls-3" x1="1880.26" y1="1080.75" x2="1880.26" y2="0.75"/><line class="cls-3" x1="1900.26" y1="1080.75" x2="1900.26" y2="0.75"/><line class="cls-3" x1="1920.26" y1="1080.75" x2="1920.26" y2="0.75"/></g></g></g></svg>